<?xml version="1.0" standalone="no"?>
<!DOCTYPE svg PUBLIC "-//W3C//DTD SVG 20010904//EN"
 "http://www.w3.org/TR/2001/REC-SVG-20010904/DTD/svg10.dtd">
<svg version="1.0" xmlns="http://www.w3.org/2000/svg"
 width="192.000000pt" height="192.000000pt" viewBox="0 0 192.000000 192.000000"
 preserveAspectRatio="xMidYMid meet">

<g transform="translate(0.000000,192.000000) scale(0.100000,-0.100000)"
fill="#000000" stroke="none">
<path d="M845 1646 c-63 -20 -104 -45 -156 -93 -64 -59 -102 -121 -135 -218
-25 -72 -28 -94 -29 -220 0 -159 13 -221 72 -347 26 -56 34 -84 29 -103 -26
-102 101 -179 175 -106 24 24 29 38 29 76 0 38 -5 52 -29 76 -20 20 -39 29
-61 29 -29 0 -34 5 -65 73 -129 283 -58 627 151 726 73 35 178 40 238 11 82
-39 160 -155 187 -277 11 -49 15 -54 48 -63 53 -15 54 -14 46 38 -26 182 -135
341 -270 391 -64 24 -166 27 -230 7z"/>
<path d="M807 1209 c-24 -14 -47 -62 -47 -98 0 -20 11 -42 29 -63 25 -28 36
-33 76 -33 40 0 51 5 77 34 l30 34 73 -7 c247 -22 464 -157 552 -341 62 -131
50 -226 -42 -324 -82 -88 -202 -113 -336 -72 l-62 20 -44 -34 -44 -33 57 -22
c171 -64 367 -34 491 74 110 96 135 285 57 440 -107 214 -344 360 -604 374
-99 5 -106 7 -131 34 -22 23 -35 28 -71 28 -23 0 -51 -5 -61 -11z"/>
<path d="M368 938 c-46 -46 -77 -88 -104 -143 -38 -77 -39 -81 -39 -189 0
-128 18 -182 83 -249 75 -78 221 -127 341 -113 252 29 457 158 576 361 21 36
44 65 52 65 8 0 28 13 44 29 23 24 29 38 29 74 0 114 -148 145 -198 41 -15
-33 -15 -38 0 -81 l17 -46 -35 -53 c-73 -110 -225 -226 -359 -275 -46 -17 -84
-22 -160 -23 -121 -1 -163 12 -226 71 -127 119 -120 292 19 444 l51 56 -12 48
-13 48 -66 -65z"/>
</g>
</svg>
